<mxfile host="app.diagrams.net" modified="2023-11-04T15:09:02.372Z" agent="Mozilla/5.0 (Windows NT 10.0; Win64; x64) AppleWebKit/537.36 (KHTML, like Gecko) Chrome/118.0.0.0 Safari/537.36 Edg/118.0.2088.76" etag="ZIOgDz3smDHu8aIiBTFf" version="22.0.8" type="github">
  <diagram name="第 1 页" id="ai7guKbhIila12l7hOL4">
    <mxGraphModel dx="929" dy="620" grid="1" gridSize="10" guides="1" tooltips="1" connect="1" arrows="0" fold="1" page="1" pageScale="1" pageWidth="827" pageHeight="1169" math="0" shadow="0">
      <root>
        <mxCell id="0" />
        <mxCell id="1" parent="0" />
        <mxCell id="mQEvYnCITtE04IxEQmtP-1" value="" style="swimlane;startSize=0;" vertex="1" parent="1">
          <mxGeometry x="230" y="140" width="330" height="370" as="geometry" />
        </mxCell>
        <mxCell id="mQEvYnCITtE04IxEQmtP-2" value="建立项目站点" style="ellipse;whiteSpace=wrap;html=1;" vertex="1" parent="mQEvYnCITtE04IxEQmtP-1">
          <mxGeometry x="30" y="50" width="90" height="40" as="geometry" />
        </mxCell>
        <mxCell id="mQEvYnCITtE04IxEQmtP-3" value="空间资源管理" style="ellipse;whiteSpace=wrap;html=1;" vertex="1" parent="mQEvYnCITtE04IxEQmtP-1">
          <mxGeometry x="30" y="100" width="90" height="40" as="geometry" />
        </mxCell>
        <mxCell id="mQEvYnCITtE04IxEQmtP-4" value="指派项目站点管理员" style="ellipse;whiteSpace=wrap;html=1;" vertex="1" parent="mQEvYnCITtE04IxEQmtP-1">
          <mxGeometry x="30" y="150" width="120" height="40" as="geometry" />
        </mxCell>
        <mxCell id="mQEvYnCITtE04IxEQmtP-5" value="删除项目站点" style="ellipse;whiteSpace=wrap;html=1;" vertex="1" parent="mQEvYnCITtE04IxEQmtP-1">
          <mxGeometry x="30" y="200" width="90" height="40" as="geometry" />
        </mxCell>
        <mxCell id="mQEvYnCITtE04IxEQmtP-6" value="数据备份" style="ellipse;whiteSpace=wrap;html=1;" vertex="1" parent="mQEvYnCITtE04IxEQmtP-1">
          <mxGeometry x="30" y="250" width="80" height="40" as="geometry" />
        </mxCell>
        <mxCell id="mQEvYnCITtE04IxEQmtP-7" value="&lt;font style=&quot;font-size: 17px;&quot;&gt;项目管理协作支撑系统&lt;/font&gt;" style="text;html=1;strokeColor=none;fillColor=none;align=center;verticalAlign=middle;whiteSpace=wrap;rounded=0;" vertex="1" parent="mQEvYnCITtE04IxEQmtP-1">
          <mxGeometry x="75" y="10" width="180" height="30" as="geometry" />
        </mxCell>
        <mxCell id="mQEvYnCITtE04IxEQmtP-9" value="栏目数据编辑" style="ellipse;whiteSpace=wrap;html=1;" vertex="1" parent="mQEvYnCITtE04IxEQmtP-1">
          <mxGeometry x="30" y="300" width="90" height="40" as="geometry" />
        </mxCell>
        <mxCell id="mQEvYnCITtE04IxEQmtP-10" value="开启站点" style="ellipse;whiteSpace=wrap;html=1;" vertex="1" parent="mQEvYnCITtE04IxEQmtP-1">
          <mxGeometry x="216" y="50" width="90" height="40" as="geometry" />
        </mxCell>
        <mxCell id="mQEvYnCITtE04IxEQmtP-11" value="关闭站点" style="ellipse;whiteSpace=wrap;html=1;" vertex="1" parent="mQEvYnCITtE04IxEQmtP-1">
          <mxGeometry x="220" y="100" width="86" height="40" as="geometry" />
        </mxCell>
        <mxCell id="mQEvYnCITtE04IxEQmtP-12" value="成员管理" style="ellipse;whiteSpace=wrap;html=1;" vertex="1" parent="mQEvYnCITtE04IxEQmtP-1">
          <mxGeometry x="222" y="150" width="84" height="40" as="geometry" />
        </mxCell>
        <mxCell id="mQEvYnCITtE04IxEQmtP-13" value="权限分配" style="ellipse;whiteSpace=wrap;html=1;" vertex="1" parent="mQEvYnCITtE04IxEQmtP-1">
          <mxGeometry x="221" y="200" width="84" height="40" as="geometry" />
        </mxCell>
        <mxCell id="mQEvYnCITtE04IxEQmtP-14" value="管理站点" style="ellipse;whiteSpace=wrap;html=1;" vertex="1" parent="mQEvYnCITtE04IxEQmtP-1">
          <mxGeometry x="220" y="250" width="90" height="40" as="geometry" />
        </mxCell>
        <mxCell id="mQEvYnCITtE04IxEQmtP-15" value="站点内数据管理" style="ellipse;whiteSpace=wrap;html=1;" vertex="1" parent="mQEvYnCITtE04IxEQmtP-1">
          <mxGeometry x="200" y="300" width="105" height="40" as="geometry" />
        </mxCell>
        <mxCell id="mQEvYnCITtE04IxEQmtP-34" style="edgeStyle=orthogonalEdgeStyle;rounded=0;orthogonalLoop=1;jettySize=auto;html=1;entryX=0;entryY=0.5;entryDx=0;entryDy=0;" edge="1" parent="1" source="mQEvYnCITtE04IxEQmtP-28" target="mQEvYnCITtE04IxEQmtP-2">
          <mxGeometry relative="1" as="geometry">
            <Array as="points">
              <mxPoint x="160" y="280" />
              <mxPoint x="160" y="210" />
            </Array>
          </mxGeometry>
        </mxCell>
        <mxCell id="mQEvYnCITtE04IxEQmtP-35" style="edgeStyle=orthogonalEdgeStyle;rounded=0;orthogonalLoop=1;jettySize=auto;html=1;exitX=0.5;exitY=0.5;exitDx=0;exitDy=0;exitPerimeter=0;entryX=0;entryY=0.5;entryDx=0;entryDy=0;" edge="1" parent="1" source="mQEvYnCITtE04IxEQmtP-28" target="mQEvYnCITtE04IxEQmtP-3">
          <mxGeometry relative="1" as="geometry">
            <Array as="points">
              <mxPoint x="160" y="280" />
              <mxPoint x="160" y="260" />
            </Array>
          </mxGeometry>
        </mxCell>
        <mxCell id="mQEvYnCITtE04IxEQmtP-36" style="edgeStyle=orthogonalEdgeStyle;rounded=0;orthogonalLoop=1;jettySize=auto;html=1;entryX=0;entryY=0.5;entryDx=0;entryDy=0;" edge="1" parent="1" source="mQEvYnCITtE04IxEQmtP-28" target="mQEvYnCITtE04IxEQmtP-4">
          <mxGeometry relative="1" as="geometry">
            <Array as="points">
              <mxPoint x="160" y="280" />
              <mxPoint x="160" y="310" />
            </Array>
          </mxGeometry>
        </mxCell>
        <mxCell id="mQEvYnCITtE04IxEQmtP-37" style="edgeStyle=orthogonalEdgeStyle;rounded=0;orthogonalLoop=1;jettySize=auto;html=1;entryX=0;entryY=0.5;entryDx=0;entryDy=0;" edge="1" parent="1" source="mQEvYnCITtE04IxEQmtP-28" target="mQEvYnCITtE04IxEQmtP-5">
          <mxGeometry relative="1" as="geometry">
            <Array as="points">
              <mxPoint x="160" y="280" />
              <mxPoint x="160" y="360" />
            </Array>
          </mxGeometry>
        </mxCell>
        <mxCell id="mQEvYnCITtE04IxEQmtP-38" style="edgeStyle=orthogonalEdgeStyle;rounded=0;orthogonalLoop=1;jettySize=auto;html=1;entryX=0;entryY=0.5;entryDx=0;entryDy=0;" edge="1" parent="1" source="mQEvYnCITtE04IxEQmtP-28" target="mQEvYnCITtE04IxEQmtP-6">
          <mxGeometry relative="1" as="geometry">
            <Array as="points">
              <mxPoint x="160" y="280" />
              <mxPoint x="160" y="410" />
            </Array>
          </mxGeometry>
        </mxCell>
        <mxCell id="mQEvYnCITtE04IxEQmtP-28" value="Actor" style="shape=umlActor;verticalLabelPosition=bottom;verticalAlign=top;html=1;fontColor=none;noLabel=1;" vertex="1" parent="1">
          <mxGeometry x="110" y="250" width="30" height="60" as="geometry" />
        </mxCell>
        <mxCell id="mQEvYnCITtE04IxEQmtP-39" style="edgeStyle=orthogonalEdgeStyle;rounded=0;orthogonalLoop=1;jettySize=auto;html=1;entryX=0;entryY=0.5;entryDx=0;entryDy=0;" edge="1" parent="1" source="mQEvYnCITtE04IxEQmtP-29" target="mQEvYnCITtE04IxEQmtP-9">
          <mxGeometry relative="1" as="geometry" />
        </mxCell>
        <mxCell id="mQEvYnCITtE04IxEQmtP-29" value="Actor" style="shape=umlActor;verticalLabelPosition=bottom;verticalAlign=top;html=1;fontColor=none;noLabel=1;" vertex="1" parent="1">
          <mxGeometry x="110" y="430" width="30" height="60" as="geometry" />
        </mxCell>
        <mxCell id="mQEvYnCITtE04IxEQmtP-41" value="系统管理员" style="text;html=1;strokeColor=none;fillColor=none;align=center;verticalAlign=middle;whiteSpace=wrap;rounded=0;" vertex="1" parent="1">
          <mxGeometry x="80" y="310" width="75" height="30" as="geometry" />
        </mxCell>
        <mxCell id="mQEvYnCITtE04IxEQmtP-42" value="栏目编辑人员" style="text;html=1;strokeColor=none;fillColor=none;align=center;verticalAlign=middle;whiteSpace=wrap;rounded=0;" vertex="1" parent="1">
          <mxGeometry x="87.5" y="490" width="75" height="30" as="geometry" />
        </mxCell>
        <mxCell id="mQEvYnCITtE04IxEQmtP-44" style="edgeStyle=orthogonalEdgeStyle;rounded=0;orthogonalLoop=1;jettySize=auto;html=1;entryX=1;entryY=0.5;entryDx=0;entryDy=0;" edge="1" parent="1" source="mQEvYnCITtE04IxEQmtP-43" target="mQEvYnCITtE04IxEQmtP-10">
          <mxGeometry relative="1" as="geometry">
            <Array as="points">
              <mxPoint x="610" y="310" />
              <mxPoint x="610" y="210" />
            </Array>
          </mxGeometry>
        </mxCell>
        <mxCell id="mQEvYnCITtE04IxEQmtP-45" style="edgeStyle=orthogonalEdgeStyle;rounded=0;orthogonalLoop=1;jettySize=auto;html=1;exitX=0.5;exitY=0.5;exitDx=0;exitDy=0;exitPerimeter=0;entryX=1;entryY=0.5;entryDx=0;entryDy=0;" edge="1" parent="1" source="mQEvYnCITtE04IxEQmtP-43" target="mQEvYnCITtE04IxEQmtP-11">
          <mxGeometry relative="1" as="geometry">
            <Array as="points">
              <mxPoint x="610" y="310" />
              <mxPoint x="610" y="260" />
            </Array>
          </mxGeometry>
        </mxCell>
        <mxCell id="mQEvYnCITtE04IxEQmtP-46" style="edgeStyle=orthogonalEdgeStyle;rounded=0;orthogonalLoop=1;jettySize=auto;html=1;entryX=1;entryY=0.5;entryDx=0;entryDy=0;" edge="1" parent="1" source="mQEvYnCITtE04IxEQmtP-43" target="mQEvYnCITtE04IxEQmtP-12">
          <mxGeometry relative="1" as="geometry" />
        </mxCell>
        <mxCell id="mQEvYnCITtE04IxEQmtP-47" style="edgeStyle=orthogonalEdgeStyle;rounded=0;orthogonalLoop=1;jettySize=auto;html=1;entryX=1;entryY=0.5;entryDx=0;entryDy=0;" edge="1" parent="1" source="mQEvYnCITtE04IxEQmtP-43" target="mQEvYnCITtE04IxEQmtP-13">
          <mxGeometry relative="1" as="geometry">
            <Array as="points">
              <mxPoint x="610" y="310" />
              <mxPoint x="610" y="360" />
            </Array>
          </mxGeometry>
        </mxCell>
        <mxCell id="mQEvYnCITtE04IxEQmtP-51" style="edgeStyle=orthogonalEdgeStyle;rounded=0;orthogonalLoop=1;jettySize=auto;html=1;exitX=0.5;exitY=0.5;exitDx=0;exitDy=0;exitPerimeter=0;entryX=1;entryY=0.5;entryDx=0;entryDy=0;" edge="1" parent="1" source="mQEvYnCITtE04IxEQmtP-43" target="mQEvYnCITtE04IxEQmtP-14">
          <mxGeometry relative="1" as="geometry">
            <Array as="points">
              <mxPoint x="610" y="310" />
              <mxPoint x="610" y="410" />
            </Array>
          </mxGeometry>
        </mxCell>
        <mxCell id="mQEvYnCITtE04IxEQmtP-52" style="edgeStyle=orthogonalEdgeStyle;rounded=0;orthogonalLoop=1;jettySize=auto;html=1;exitX=0.5;exitY=0.5;exitDx=0;exitDy=0;exitPerimeter=0;entryX=1;entryY=0.5;entryDx=0;entryDy=0;" edge="1" parent="1" source="mQEvYnCITtE04IxEQmtP-43" target="mQEvYnCITtE04IxEQmtP-15">
          <mxGeometry relative="1" as="geometry">
            <Array as="points">
              <mxPoint x="610" y="310" />
              <mxPoint x="610" y="460" />
            </Array>
          </mxGeometry>
        </mxCell>
        <mxCell id="mQEvYnCITtE04IxEQmtP-43" value="Actor" style="shape=umlActor;verticalLabelPosition=bottom;verticalAlign=top;html=1;fontColor=none;noLabel=1;" vertex="1" parent="1">
          <mxGeometry x="670" y="280" width="30" height="60" as="geometry" />
        </mxCell>
      </root>
    </mxGraphModel>
  </diagram>
</mxfile>
